<svg style="width: 100%; height: auto;" id="visual" viewBox="0 0 1920 1080" width="1920" height="1080">
<rect width="1920" height="1080" fill="#80a3b1"></rect>
<g>
    <g transform="translate(424 833)">
        <path d="M186.2 -56.3C211 15.9 180 110.5 114.1 158.7C48.3 206.9 -52.4 208.8 -122.2 160C-192 111.2 -230.9 11.8 -205.4 -61.4C-179.9 -134.6 -89.9 -181.5 -4.6 -179.9C80.7 -178.4 161.4 -128.6 186.2 -56.3Z" stroke="#7812ff" fill="none" stroke-width="20">
        </path>
    </g>
    <g transform="translate(1467 24)">
        <path d="M140.1 -44.8C161.2 19.6 144.1 97.1 96.6 131.2C49.1 165.3 -28.7 156 -86.9 114.8C-145.1 73.7 -183.6 0.8 -165.9 -59C-148.1 -118.7 -74.1 -165.3 -7.3 -162.9C59.5 -160.5 118.9 -109.2 140.1 -44.8Z" stroke="#7812ff" fill="none" stroke-width="20">
        </path>
    </g>
    <g transform="translate(22 125)">
        <path d="M129.1 -39.4C145 7 120.2 69.1 77 98.8C33.8 128.4 -27.7 125.6 -69.3 95.4C-110.8 65.2 -132.4 7.6 -117.5 -37.4C-102.6 -82.4 -51.3 -114.8 2.6 -115.6C56.6 -116.5 113.2 -85.8 129.1 -39.4Z" stroke="#7812ff" fill="none" stroke-width="20">
        </path>
    </g>
</g>
</svg>