<svg xmlns="http://www.w3.org/2000/svg" xmlns:xlink="http://www.w3.org/1999/xlink"
 version="1.1" x="0px" y="0px" viewBox="0 0 100 125" 
 enable-background="new 0 0 100 100" xml:space="preserve"><g>
 <path fill="#ffffff" d="M71.4,77.5c-3.6,0-6.6-1.4-7.3-3.2c-0.1,0.3-0.2,0.6-0.2,0.9c0,2.2,3.4,4,7.5,4c4.1,0,7.5-1.8,7.5-4   c0-0.3-0.1-0.6-0.2-0.9C78,76.1,75,77.5,71.4,77.5z"/>
 <path fill="#ffffff" d="M71.5,74.5c-3.6,0-6.6-1.4-7.3-3.2C64,71.6,64,71.9,64,72.1c0,2.2,3.4,4,7.5,4c4.1,0,7.5-1.8,7.5-4   c0-0.3-0.1-0.6-0.2-0.9C78.1,73.1,75.1,74.5,71.5,74.5z"/>
 <path fill="#ffffff" d="M71.4,80.5c-3.6,0-6.6-1.4-7.3-3.2c-0.1,0.3-0.2,0.6-0.2,0.9c0,2.2,3.4,4,7.5,4c4.1,0,7.5-1.8,7.5-4   c0-0.3-0.1-0.6-0.2-0.9C78,79.2,75,80.5,71.4,80.5z"/>
 <ellipse fill="#ffffff" cx="71.5" cy="69.1" rx="7.5" ry="4"/>
 <path fill="#ffffff" d="M25.2,35.7c0-0.1,0,0.8,0.5,1.7c0.4,0.9,1.4,1.8,2.9,2.2c0.1,0.6,0.5,2,1.2,3.8c0.9,2.3,2.5,5,5.1,7   c0.2,0.2,2.7,2.6,7.1,2.6c1.9,0,4-0.4,6.5-1.6c0,0,1.6-0.8,3.4-2.7c1.7-1.9,3.6-4.8,4.4-9c0.4,0,1-0.2,1.7-0.6   c0.9-0.6,1.8-1.6,2.1-3.5c0,0,0-1-0.4-2.1c-0.2-0.5-0.5-1.1-1-1.5c-0.4-0.3-0.9-0.6-1.5-0.7h0.1l0.8-5.3c0.6-8.2-5.1-10.3-5.1-10.3   c-0.1-2.7-2.5-4.4-2.5-4.4c-4.6-2.7-14.2,0.9-14.2,0.9c-7.4,1.8-9.1,6.9-9.1,6.9c-2.3,5.3,0,11.9,0.2,12.5   c-0.2,0.1-0.5,0.3-0.8,0.6C26,32.9,25.2,34,25.2,35.7z"/><path fill="#ffffff" d="M63.7,59.7c-1.1-0.7-2.3-1.4-3.7-2.1c-0.1,0-0.1-0.1-0.2-0.1c-0.3-0.1-0.6-0.3-0.9-0.4   c-2.7-1.1-5.4-1.9-8.1-2.3c-1.2,1-2.1,1.5-2.1,1.5c-2.5,1.2-4.6,1.6-6.5,1.6c-4.4,0-6.9-2.4-7.1-2.6c-0.1-0.1-0.2-0.2-0.3-0.3   c-3.3,0.6-6,1.4-7.6,1.9v-0.1c0,0-0.7,0.2-1.7,0.7c-3,1.4-9,5-11,12.1v10.8c0,0,18.2,11.8,45.3,4.3c-2.7-2.9-4.4-6.7-4.4-11   C55.5,67.6,58.8,62.4,63.7,59.7z"/><path d="M71.5,59.7c-7.7,0-14,6.3-14,14s6.3,14,14,14s14-6.3,14-14S79.2,59.7,71.5,59.7z M71.4,82.3c-4.1,0-7.5-1.8-7.5-4   c0-0.3,0.1-0.6,0.2-0.9c0.7,1.8,3.7,3.2,7.3,3.2s6.6-1.4,7.3-3.2c0.1,0.3,0.2,0.6,0.2,0.9C78.9,80.4,75.6,82.3,71.4,82.3z    M71.4,79.2c-4.1,0-7.5-1.8-7.5-4c0-0.3,0.1-0.6,0.2-0.9c0.7,1.8,3.7,3.2,7.3,3.2s6.6-1.4,7.3-3.2c0.1,0.3,0.2,0.6,0.2,0.9   C78.9,77.4,75.6,79.2,71.4,79.2z M71.5,76.2c-4.1,0-7.5-1.8-7.5-4c0-0.3,0.1-0.6,0.2-0.9c0.7,1.8,3.7,3.2,7.3,3.2s6.6-1.4,7.3-3.2   c0.1,0.3,0.2,0.6,0.2,0.9C79,74.4,75.6,76.2,71.5,76.2z M71.5,73.2c-4.1,0-7.5-1.8-7.5-4s3.4-4,7.5-4c4.1,0,7.5,1.8,7.5,4   S75.6,73.2,71.5,73.2z"/></g></svg>