<svg xmlns="http://www.w3.org/2000/svg" data-name="Layer 1" viewBox="0 0 95 118.75" x="0px" y="0px"><defs><style>.cls-1{fill-rule:evenodd;}</style></defs><title>a</title><path class="cls-1" d="M66.208,85.818H28.792a3.138,3.138,0,0,0-3.126,3.126V92.07H69.334V88.944a3.138,3.138,0,0,0-3.126-3.126ZM40.034,83.605H54.967l-.6-4.814H40.636l-.6,4.814ZM23.017,52.336a1.107,1.107,0,0,1,0-2.213H71.983a1.107,1.107,0,1,1,0,2.213Zm42.608,6.355a1.107,1.107,0,0,1,0-2.213H77.971a1.107,1.107,0,1,1,0,2.213Zm-48.879,0a1.107,1.107,0,0,1,0-2.213h45.3a1.107,1.107,0,1,1,0,2.213Zm.142,6.416a1.107,1.107,0,1,1,0-2.213H78.113a1.107,1.107,0,0,1,0,2.213ZM27.659,29.828a1.1,1.1,0,0,1,2.109.649L26.416,41.268a1.1,1.1,0,1,1-2.109-.648l3.352-10.792Zm6.614,1.5a1.1,1.1,0,1,1,1.443-1.668l5.86,5.054a1.1,1.1,0,0,1,.112,1.556,1.219,1.219,0,0,1-.125.124l-5.847,5.043a1.1,1.1,0,0,1-1.443-1.669l4.892-4.22-4.892-4.22ZM18.358,29.66A1.1,1.1,0,1,1,19.8,31.328l-4.892,4.22,4.892,4.22a1.1,1.1,0,0,1-1.444,1.669l-5.847-5.043a1.328,1.328,0,0,1-.125-.124,1.1,1.1,0,0,1,.113-1.556l5.859-5.054Zm29.967,1.611c0,2.443.011,4.888,0,7.331h0c0,.907,1.633,1.857,4.274,2.66a42.741,42.741,0,0,0,11.9,1.487,42.746,42.746,0,0,0,11.9-1.487c2.641-.8,4.274-1.753,4.274-2.66V38.57h0v-7.3a14.7,14.7,0,0,1-3.634,1.59A44.983,44.983,0,0,1,64.5,34.454a44.973,44.973,0,0,1-12.538-1.59,14.657,14.657,0,0,1-3.638-1.593Zm3.638-8.916A44.932,44.932,0,0,0,64.5,23.946a44.942,44.942,0,0,0,12.538-1.591,14.7,14.7,0,0,0,3.634-1.589V28.1c-.011.9-1.642,1.851-4.274,2.651a42.746,42.746,0,0,1-11.9,1.487,42.741,42.741,0,0,1-11.9-1.487c-2.641-.8-4.274-1.753-4.274-2.66,0-.032,0-.064,0-.1V20.764a14.658,14.658,0,0,0,3.638,1.591Zm30.894-1.2c-.014,5.819-.019,11.637.029,17.442,0,1.994-2.235,3.671-5.847,4.77A44.983,44.983,0,0,1,64.5,44.962a44.973,44.973,0,0,1-12.538-1.59c-3.613-1.1-5.847-2.776-5.847-4.77h0c-.021-3.451,0-6.908,0-10.36,0-.049,0-.1,0-.148,0-.034,0-.068,0-.1V21.16H8.033v46.7H86.967V21.16ZM80.673,7.087V7.068c-.011-.9-1.642-1.851-4.274-2.651A42.741,42.741,0,0,0,64.5,2.93,42.741,42.741,0,0,0,52.6,4.417c-2.641.8-4.274,1.753-4.274,2.661s1.633,1.857,4.274,2.66a42.741,42.741,0,0,0,11.9,1.487A42.741,42.741,0,0,0,76.4,9.738c2.632-.8,4.263-1.747,4.274-2.651ZM48.325,17.563v.023h0c0,.907,1.633,1.857,4.274,2.66a42.741,42.741,0,0,0,11.9,1.487,42.746,42.746,0,0,0,11.9-1.487c2.632-.8,4.263-1.747,4.274-2.651V10.258a14.7,14.7,0,0,1-3.634,1.589A44.937,44.937,0,0,1,64.5,13.438a44.932,44.932,0,0,1-12.538-1.591,14.642,14.642,0,0,1-3.638-1.591v7.307Zm-2.213-1.935H5.386a3.089,3.089,0,0,0-2.08.772A2.343,2.343,0,0,0,2.5,18.135V74.071a2.345,2.345,0,0,0,.806,1.735,3.094,3.094,0,0,0,2.08.772H89.614a3.1,3.1,0,0,0,2.081-.772,2.344,2.344,0,0,0,.805-1.735V18.135A2.342,2.342,0,0,0,91.7,16.4a3.092,3.092,0,0,0-2.081-.772H82.872l-.009,3.319h5.211a1.107,1.107,0,0,1,1.107,1.107V68.967a1.107,1.107,0,0,1-1.107,1.106H6.926A1.106,1.106,0,0,1,5.82,68.967V20.054a1.107,1.107,0,0,1,1.106-1.107H46.12V17.734c0-.049,0-.1,0-.148h0q-.006-.979-.008-1.958ZM54.6,25.979h0a1.1,1.1,0,0,0-.251,2.2h0a1.1,1.1,0,1,0,.251-2.2Zm7.6,1.075h0a1.106,1.106,0,1,0-.267,2.2h0a1.106,1.106,0,0,0,.268-2.2ZM54.661,36.4a1.106,1.106,0,0,1-.381,2.179h0A1.106,1.106,0,1,1,54.66,36.4ZM62.2,37.469a1.106,1.106,0,0,1-.268,2.2h0a1.106,1.106,0,1,1,.267-2.2ZM54.6,15.741a1.1,1.1,0,0,1-.251,2.2h0a1.105,1.105,0,0,1,.251-2.2Zm7.668,1.088A1.1,1.1,0,1,1,61.858,19h0a1.1,1.1,0,0,1,.407-2.17ZM43.13,74.432a1.107,1.107,0,1,1,0-2.213h8.741a1.107,1.107,0,0,1,0,2.213Z" fill="#ffffff"/></svg>