<svg class="bg-svg" xmlns="http://www.w3.org/2000/svg" style="width: 100%; height: 100%;" viewBox="0 0 1920 1080" preserveAspectRatio="xMidYMid meet" width="1920" height="1080">
      <rect width="1920" height="1080" fill="#7812ff" preserveAspectRatio="xMidYMid meet"></rect>
      <g>
          <g transform="translate(746 563)">
              <path d="M195.8 -63.2C223.4 21.1 194.2 124.2 126.9 172.6C59.6 221 -45.9 214.6 -112.5 164.1C-179 113.5 -206.7 18.7 -181.5 -62.4C-156.3 -143.6 -78.1 -211 3 -211.9C84.2 -212.9 168.3 -147.5 195.8 -63.2Z" fill="#80a3b1"></path>
          </g>
          <g transform="translate(1426 778)">
              <path d="M111.5 -40.7C123.9 1.8 99 51.9 60.1 79.3C21.2 106.7 -31.6 111.4 -65.8 87.3C-100 63.3 -115.5 10.3 -101.5 -34.5C-87.4 -79.4 -43.7 -116.2 2.9 -117.2C-87.4 -79.4 -43.7 -116.2 2.9 -117.2C49.6 -118.1 99.2 -83.2 111.5 -40.7Z" fill="#80a3b1"></path>
          </g>
          <g transform="translate(1798 145)">
              <path d="M112.1 -39C126.9 9 107.8 65.5 70.6 91C33.5 116.5 -21.6 111.1 -57.9 83.8C-94.2 56.5 -111.6 7.3 -98.8 -38C-86 -83.4 -43 -124.9 2.8 -125.8C48.7 -126.7 97.3 -87.1 112.1 -39Z" fill="#80a3b1"></path>
          </g>
      </g>
  </svg>
  