<svg xmlns="http://www.w3.org/2000/svg" xmlns:xlink="http://www.w3.org/1999/xlink" version="1.1" x="0px" y="0px" viewBox="0 0 32 40" enable-background="new 0 0 32 32" xml:space="preserve"><g><polygon points="11,6 13,2 12,2 10,6  "/><path d="M9,6l2-4H3C2.4477539,2,2,2.4477539,2,3v3H9z M7,3c0.5523071,0,1,0.4476929,1,1S7.5523071,5,7,5   C6.4477539,5,6,4.5523071,6,4S6.4477539,3,7,3z M4,3c0.5523071,0,1,0.4476929,1,1S4.5523071,5,4,5C3.4477539,5,3,4.5523071,3,4   S3.4477539,3,4,3z"/><path d="M23,6V3c0-0.5522461-0.4477539-1-1-1h-8l-2,4H23z"/><path d="M15,27V14.9023438l0.0080566,0.0073242C15.0945435,12.0316772,19.1739502,11,23,11V7H2v22c0,0.5522461,0.4476929,1,1,1   h14.3226929C15.9342651,29.3648682,15,28.3978271,15,27z M6.8201904,22.1157227   c0.2119141,0.1767578,0.2407227,0.4921875,0.0639648,0.7045898C6.7850342,22.9389648,6.6429443,23,6.4993896,23   c-0.112793,0-0.2260742-0.0380859-0.3198242-0.1157227l-3-2.5C3.0657959,20.2890625,2.9998779,20.1484375,2.9998779,20   s0.065918-0.2890625,0.1796875-0.3842773l3-2.5c0.2128906-0.1767578,0.527832-0.1479492,0.7045898,0.0639648   c0.1767578,0.2124023,0.1479492,0.527832-0.0639648,0.7045898L4.2811279,20L6.8201904,22.1157227z M13.8203125,20.3843994l-3,2.5   c-0.09375,0.0776367-0.2070313,0.1157227-0.3198242,0.1157227c-0.1435547,0-0.2856445-0.0610352-0.3847656-0.1796875   c-0.1767578-0.2124023-0.1479492-0.527832,0.0639648-0.7045898l2.5390625-2.1157227l-2.5390625-2.1157227   c-0.2119141-0.1767578-0.2407227-0.4921875-0.0639648-0.7045898c0.1767578-0.2119141,0.4916992-0.2407227,0.7045898-0.0639648   l3,2.5C13.934082,19.7110596,14,19.8516846,14,20.0001221S13.934082,20.2891846,13.8203125,20.3843994z"/><path d="M23,12c-3.484375,0-7,0.9277344-7,3s3.515625,3,7,3s7-0.9277344,7-3S26.484375,12,23,12z"/><path d="M23,19c-2.7086182,0-5.5421143-0.5186768-7-1.8409424V19c0,2.0722656,3.515625,3,7,3s7-0.9277344,7-3v-1.8409424   C28.5421143,18.4813232,25.7086182,19,23,19z"/><path d="M23,23c-2.7086182,0-5.5421143-0.5186768-7-1.8409424V23c0,2.0722656,3.515625,3,7,3s7-0.9277344,7-3v-1.8409424   C28.5421143,22.4813232,25.7086182,23,23,23z"/><path d="M23,27c-2.7086182,0-5.5421143-0.5186768-7-1.8409424V27c0,2.0722656,3.515625,3,7,3s7-0.9277344,7-3v-1.8409424   C28.5421143,26.4813232,25.7086182,27,23,27z"/></g><text x="0" y="47" fill="#000000" font-size="5px" font-weight="bold" font-family="'Helvetica Neue', Helvetica, Arial-Unicode, Arial, Sans-serif">Created by M. Oki Orlando</text><text x="0" y="52" fill="#000000" font-size="5px" font-weight="bold" font-family="'Helvetica Neue', Helvetica, Arial-Unicode, Arial, Sans-serif">from the Noun Project</text></svg>