<svg xmlns:inkscape="http://www.inkscape.org/namespaces/inkscape" xmlns:sodipodi="http://sodipodi.sourceforge.net/DTD/sodipodi-0.dtd" xmlns="http://www.w3.org/2000/svg" xmlns:svg="http://www.w3.org/2000/svg" width="44.265396mm" height="12.04736mm" viewBox="0 0 44.265396 12.04736" version="1.1" id="svg9079" inkscape:version="1.1 (c68e22c387, 2021-05-23)"><script xmlns="">window._wordtune_extension_installed = true;</script>
  <sodipodi:namedview id="namedview9081" pagecolor="#505050" bordercolor="#eeeeee" borderopacity="1" inkscape:pageshadow="0" inkscape:pageopacity="0" inkscape:pagecheckerboard="0" inkscape:document-units="mm" showgrid="false" fit-margin-top="0" fit-margin-left="0" fit-margin-right="0" fit-margin-bottom="0" inkscape:zoom="0.73228114" inkscape:cx="-58.037818" inkscape:cy="23.215127" inkscape:window-width="1920" inkscape:window-height="1002" inkscape:window-x="-8" inkscape:window-y="-8" inkscape:window-maximized="1" inkscape:current-layer="layer1"/>
  <defs id="defs9076"/>
  <g inkscape:label="Layer 1" inkscape:groupmode="layer" id="layer1" transform="translate(-82.828984,-142.47632)">
    <path d="m 85.701301,152.06866 c 0.86995,0 1.116189,-1.09961 1.116189,-3.74191 0,-3.08575 -0.525286,-3.51261 -1.264003,-3.51261 h -0.246239 v 7.25452 z m -2.872317,2.26519 V 142.5493 h 2.511425 c 2.691695,0 3.971925,1.28024 3.971925,5.77745 0,3.67594 -0.558094,6.0071 -3.758847,6.0071 z" style="fill:#ffffff;fill-opacity:1;fill-rule:nonzero;stroke:none;stroke-width:0.352778" id="path56"/>
    <path d="m 111.32161,142.57499 h 2.34703 v 8.64976 c 0,2.2158 -0.9846,3.2004 -3.03636,3.2004 -2.03517,0 -3.02013,-0.9846 -3.02013,-3.2004 v -8.64976 h 2.38019 v 8.83003 c 0,0.75529 0.24589,1.01776 0.65652,1.01776 0.42651,0 0.67275,-0.26247 0.67275,-1.01776 z" style="fill:#ffffff;fill-opacity:1;fill-rule:nonzero;stroke:none;stroke-width:0.352778" id="path60"/>
    <path d="m 123.10587,154.33381 v -9.56874 h -1.60831 v -2.2158 h 5.59682 v 2.2158 h -1.60867 v 9.56874 z" style="fill:#ffffff;fill-opacity:1;fill-rule:nonzero;stroke:none;stroke-width:0.352778" id="path64"/>
    <path d="m 97.370802,145.7755 c -0.04939,-0.60713 -0.19685,-1.28023 -0.804333,-1.28023 -0.426509,0 -0.590903,0.29563 -0.590903,0.6731 0,2.19922 3.643842,2.83951 3.643842,6.33518 0,1.87114 -1.148998,3.02013 -3.069167,3.02013 -2.166761,0 -2.839508,-1.14899 -2.970742,-3.18417 l 2.199217,-0.16404 c 0.06562,0.90276 0.21343,1.36243 0.804333,1.36243 0.410281,0 0.672747,-0.29563 0.672747,-0.86995 0,-2.24861 -3.545063,-2.90513 -3.545063,-6.30273 0,-1.72332 0.951794,-2.8889 2.822927,-2.8889 2.232378,0 2.8067,1.46086 2.937934,3.13514 z" style="fill:#ffffff;fill-opacity:1;fill-rule:nonzero;stroke:none;stroke-width:0.352778" id="path68"/>
    <path d="m 90.362483,151.01721 h 2.39642 v -8.48113 h -2.39642 z" style="fill:#ffffff;fill-opacity:1;fill-rule:nonzero;stroke:none;stroke-width:0.352778" id="path70"/>
    <path d="m 100.53836,144.52433 h 2.36361 v -1.94839 h -2.36361 z" style="fill:#ffffff;fill-opacity:1;fill-rule:nonzero;stroke:none;stroke-width:0.352778" id="path72"/>
    <path d="m 92.758903,152.25969 h -2.39642 v 2.09938 h 2.39642 z" style="fill:#ff6b41;fill-opacity:1;fill-rule:nonzero;stroke:none;stroke-width:0.352778" id="path90"/>
    <path d="m 103.97953,142.5757 0.3997,1.94839 h 2.54388 l -0.47907,-1.94839 z" style="fill:#ffffff;fill-opacity:1;fill-rule:nonzero;stroke:none;stroke-width:0.352778" id="path76"/>
    <path d="m 118.63141,142.56571 c -0.0695,0.98072 -0.49318,1.29681 -0.95814,1.29681 h -0.34467 v -1.29681 h -2.37984 v 7.84542 h 2.37984 v -4.43159 h 0.26247 c 2.2867,0 3.43641,-1.28587 3.5373,-3.41383 z" style="fill:#ffffff;fill-opacity:1;fill-rule:nonzero;stroke:none;stroke-width:0.352778" id="path80"/>
    <path d="m 117.3286,154.39238 v -0.6858 h 0.34466 c 0.4117,0 0.7426,0.14323 0.8883,0.6858 h 2.53718 c -0.2212,-2.03764 -1.42734,-2.90195 -3.5239,-2.90195 h -2.62608 v 2.90195 z" style="fill:#ffffff;fill-opacity:1;fill-rule:nonzero;stroke:none;stroke-width:0.352778" id="path84"/>
    <path d="m 102.90186,147.50802 h 0.21343 c 0.36089,0 1.00118,0 1.00118,1.57551 0,1.264 -0.24624,1.64112 -1.00118,1.64112 h -0.21343 z m 0,6.8513 v -1.64853 h 0.54151 l 0.33796,1.64853 h 2.42535 l -0.71155,-2.89596 c 0.6731,-0.45967 1.11619,-1.28023 1.11619,-2.69169 0,-2.51107 -1.13277,-3.2826 -3.20075,-3.2826 h -2.87232 v 8.87025 z" style="fill:#ffffff;fill-opacity:1;fill-rule:nonzero;stroke:none;stroke-width:0.352778" id="path88"/>
  </g>
</svg>