<svg fill="#6200ff" xmlns="http://www.w3.org/2000/svg" viewBox="0 0 96 120" x="0px" y="0px"><g data-name="1"><path d="M7.69,26.53a6.51,6.51,0,0,1,6.39-5.33H81.92a6.51,6.51,0,0,1,6.39,5.33L58.56,47.46a1.48,1.48,0,0,0-.8.48.83.83,0,0,0-.13.18l-7.16,5a4.3,4.3,0,0,1-4.94,0l-7.16-5a.83.83,0,0,0-.13-.18,1.48,1.48,0,0,0-.8-.48ZM61.41,49.12,78.88,64.31A1.5,1.5,0,0,1,79,66.43a1.48,1.48,0,0,1-1.13.51,1.5,1.5,0,0,1-1-.36l-18-15.68-6.69,4.71a7.31,7.31,0,0,1-8.38,0L37.12,50.9l-18,15.66a1.5,1.5,0,1,1-2-2.26L34.59,49.12l-27-19V68.3a6.51,6.51,0,0,0,6.5,6.5H81.92a6.51,6.51,0,0,0,6.5-6.5V30.12Z"/></g></svg>