<svg fill="#ffffff" xmlns="http://www.w3.org/2000/svg" xmlns:xlink="http://www.w3.org/1999/xlink" version="1.1" x="0px" y="0px" viewBox="0 0 100 125" style="enable-background:new 0 0 100 100;" xml:space="preserve"><path d="M2.4,97.54c0,1.16,0.95,2.11,2.12,2.11h76.99c1.16,0,2.11-0.95,2.11-2.11V27.5H2.4V97.54z M57.05,54.86  c-0.73-0.66-1.15-1.56-1.2-2.56c-0.05-0.98,0.29-1.93,0.96-2.65c0.66-0.73,1.56-1.16,2.55-1.21c1-0.05,1.93,0.3,2.66,0.96  l12.57,11.44c0.76,0.71,1.21,1.7,1.21,2.74c0,1.03-0.45,2.02-1.21,2.73L62.01,77.75c-0.67,0.62-1.56,0.96-2.48,0.96  c-1.04,0-2.03-0.45-2.73-1.21c-0.67-0.72-1-1.67-0.96-2.65c0.05-0.99,0.47-1.89,1.2-2.57l9.57-8.7L57.05,54.86z M33.96,73.62  l9.39-22.89c0.78-1.87,2.93-2.77,4.82-2.01c1.88,0.78,2.79,2.93,2.02,4.82l-9.41,22.89c-0.57,1.38-1.91,2.28-3.41,2.28  c-0.48,0-0.95-0.09-1.4-0.27C34.08,77.66,33.18,75.5,33.96,73.62z M10.29,31.83H22.6c0.63,0,1.14,0.51,1.14,1.14  c0,0.63-0.51,1.14-1.14,1.14H10.29c-0.63,0-1.14-0.51-1.14-1.14C9.15,32.34,9.67,31.83,10.29,31.83z M10.29,39.82h21.72  c0.64,0,1.14,0.5,1.14,1.14c0,0.63-0.5,1.14-1.14,1.14H10.29c-0.63,0-1.14-0.51-1.14-1.14C9.15,40.32,9.67,39.82,10.29,39.82z   M28.98,72.29c0.73,0.66,1.15,1.56,1.2,2.55c0.05,0.99-0.3,1.94-0.96,2.66c-0.7,0.76-1.69,1.21-2.73,1.21  c-0.92,0-1.8-0.34-2.49-0.96L11.45,66.31c-0.78-0.7-1.21-1.7-1.21-2.73c0-1.04,0.43-2.04,1.21-2.74L24,49.41  c1.51-1.37,3.85-1.26,5.22,0.25c0.66,0.72,1,1.67,0.96,2.65c-0.05,0.99-0.47,1.89-1.2,2.56l-9.57,8.72L28.98,72.29z M10.29,84.5  h18.54c0.63,0,1.14,0.51,1.14,1.14s-0.51,1.14-1.14,1.14H10.29c-0.63,0-1.14-0.51-1.14-1.14S9.67,84.5,10.29,84.5z M10.29,92.49  h32.71c0.64,0,1.14,0.5,1.14,1.14c0,0.63-0.5,1.14-1.14,1.14H10.29c-0.63,0-1.14-0.51-1.14-1.14C9.15,92.99,9.67,92.49,10.29,92.49z   M58.5,75.97c-0.26-0.29-0.39-0.64-0.37-1.02c0.01-0.38,0.17-0.72,0.46-0.98L70,63.58l-11.41-10.4c-0.29-0.26-0.45-0.6-0.46-0.98  c-0.02-0.38,0.1-0.73,0.37-1.02c0.25-0.27,0.59-0.43,0.97-0.46h0.07c0.35,0,0.68,0.13,0.95,0.37l12.57,11.44  c0.29,0.27,0.46,0.65,0.46,1.05c0,0.39-0.17,0.76-0.46,1.04L60.48,76.06C59.93,76.56,59,76.53,58.5,75.97z M36.07,74.48l9.39-22.89  c0.23-0.54,0.75-0.87,1.31-0.87c0.17,0,0.35,0.03,0.53,0.1c0.72,0.3,1.06,1.12,0.78,1.84l-9.41,22.89c-0.29,0.7-1.12,1.05-1.84,0.76  C36.11,76.03,35.77,75.2,36.07,74.48z M27.53,51.19c0.25,0.29,0.39,0.64,0.37,1.02c-0.01,0.38-0.18,0.72-0.46,0.98l-11.41,10.4  l11.41,10.39c0.27,0.26,0.45,0.6,0.46,0.98c0.02,0.38-0.11,0.73-0.37,1.02c-0.5,0.55-1.44,0.59-1.99,0.09L12.98,64.62  c-0.29-0.27-0.46-0.65-0.46-1.04c0-0.4,0.17-0.78,0.46-1.05L25.54,51.1c0.27-0.24,0.61-0.37,0.95-0.37  C26.88,50.73,27.26,50.89,27.53,51.19z M81.51,18.44H4.52c-1.18,0-2.12,0.95-2.12,2.1v4.68h81.23v-4.68  C83.62,19.39,82.67,18.44,81.51,18.44z M65.28,23.43c-0.88,0-1.6-0.72-1.6-1.6c0-0.89,0.72-1.6,1.6-1.6s1.6,0.71,1.6,1.6  C66.88,22.71,66.16,23.43,65.28,23.43z M71.84,23.43c-0.88,0-1.6-0.72-1.6-1.6c0-0.89,0.72-1.6,1.6-1.6c0.89,0,1.6,0.71,1.6,1.6  C73.44,22.71,72.73,23.43,71.84,23.43z M78.42,23.43c-0.88,0-1.6-0.72-1.6-1.6c0-0.89,0.72-1.6,1.6-1.6s1.6,0.71,1.6,1.6  C80.01,22.71,79.3,23.43,78.42,23.43z M95.48,0.35H18.49c-1.18,0-2.12,0.95-2.12,2.11v13.7h65.14c2.42,0,4.39,1.96,4.39,4.38v61.02  h9.58c1.16,0,2.12-0.95,2.12-2.1v-77C97.6,1.29,96.65,0.35,95.48,0.35z M78.87,6c-0.88,0-1.6-0.71-1.6-1.6c0-0.88,0.72-1.6,1.6-1.6  c0.88,0,1.6,0.72,1.6,1.6C80.47,5.29,79.75,6,78.87,6z M85.44,6c-0.88,0-1.6-0.71-1.6-1.6c0-0.88,0.72-1.6,1.6-1.6  c0.89,0,1.6,0.72,1.6,1.6C87.03,5.29,86.33,6,85.44,6z M92.01,6c-0.88,0-1.6-0.71-1.6-1.6c0-0.88,0.72-1.6,1.6-1.6  c0.88,0,1.6,0.72,1.6,1.6C93.61,5.29,92.89,6,92.01,6z"/></svg>