<svg fill="#ffffff" xmlns="http://www.w3.org/2000/svg" viewBox="0 0 512 640" x="0px" y="0px"><path d="M408,32H104a8.009,8.009,0,0,0-8,8V80H416V40A8.009,8.009,0,0,0,408,32ZM120,64a8,8,0,1,1,8-8A8,8,0,0,1,120,64Zm32,0a8,8,0,1,1,8-8A8,8,0,0,1,152,64Zm32,0a8,8,0,1,1,8-8A8,8,0,0,1,184,64Z"/><circle cx="304" cy="248" r="8"/><circle cx="208" cy="136" r="8"/><path d="M448,360V336H64v24a24.027,24.027,0,0,0,24,24H424A24.027,24.027,0,0,0,448,360Z"/><polygon points="222.246 400 210.246 448 301.754 448 289.754 400 222.246 400"/><path d="M145.371,480H366.629A24.042,24.042,0,0,0,344,464H168A24.042,24.042,0,0,0,145.371,480Z"/><path d="M448,120a24.039,24.039,0,0,0-16-22.624V280a24.028,24.028,0,0,1-24,24H104a24.028,24.028,0,0,1-24-24V97.376A24.039,24.039,0,0,0,64,120V320H448Z"/><path d="M408,288a8.009,8.009,0,0,0,8-8V96H96V280a8.009,8.009,0,0,0,8,8ZM184,136a24,24,0,0,1,48,0c0,.036,0,.071,0,.106,14.27,6.486,32.233,17.387,46.248,34.894,16.634,20.8,25.035,39.649,29.28,53.261a24.017,24.017,0,1,1-15.8,3.125C287.786,215.38,280.234,199.1,265.752,181c-11.728-14.652-26.858-24.026-39.208-29.78A24.09,24.09,0,0,1,216,158.624v66.752a24,24,0,1,1-16,0V158.624A24.039,24.039,0,0,1,184,136Z"/><circle cx="208" cy="248" r="8"/></svg>