<svg xmlns="http://www.w3.org/2000/svg" id="Layer_2" data-name="Layer 2" viewBox="0 0 250.43 93.37">
  <defs>
    <style>
      .cls-1 {
        fill: #fff;
      }
    </style>
  </defs>
  <g id="Layer_1-2" data-name="Layer 1">
    <g>
      <path class="cls-1" d="M121.94,65.62c1.39,.09,2.75-.5,3.89-1.29,.73-.5,1.4-1.09,1.92-1.8,1.52-2.04,1.57-5.05,.14-7.15-1.43-2.1-4.26-3.14-6.71-2.47l.56-.6c-.69,.24-1.39,.49-2.08,.73-1.26,.44-2.6,.94-3.41,2.01-1.26,1.67-.76,4.03-.2,6.05,.26,.94,.55,1.92,1.23,2.6,.51,.51,1.2,.81,1.86,1.09,.9,.38,1.81,.77,2.79,.83Z"/>
      <path class="cls-1" d="M96.68,61.75l.55-.23c-1.74,.25-3.51,.56-5.05,1.4-1.54,.84-2.84,2.31-3.04,4.06-.16,1.47,.47,2.92,1.29,4.15,.53,.79,1.17,1.54,2,2.02,2.01,1.17,4.53,.51,6.75-.18,.53-.16,1.08-.34,1.5-.7,.31-.27,.52-.62,.73-.97,.62-1.08,1.19-2.22,1.34-3.45,.2-1.64-.39-3.35-1.55-4.52-1.16-1.17-2.87-1.77-4.51-1.58Z"/>
      <path class="cls-1" d="M129.63,85.76c-.41-.79-.42-1.75-.86-2.52-.49-.86-1.42-1.36-2.3-1.81-.96-.5-1.97-1-3.06-1.03-1.48-.03-2.8,.84-4.02,1.68l.77-.75c-1.27,.49-2.28,1.63-2.61,2.95-.22,.87-.16,1.79-.04,2.68,.17,1.32,.48,2.64,1.14,3.79,.66,1.15,1.71,2.13,3,2.47,.96,.26,1.98,.15,2.94-.07,2.41-.55,4.8-2,5.63-4.33,.21-.59,.32-1.26,.1-1.85-.16-.44-.48-.8-.7-1.21Z"/>
      <path class="cls-1" d="M155.03,65.9c-.2-1.37-.68-2.84-1.87-3.55-.54-.32-1.18-.45-1.8-.57-1.16-.23-2.34-.45-3.52-.36-1.18,.09-2.38,.54-3.13,1.46l-.15-.08c-.68,1.31-1.36,2.65-1.65,4.09-.29,1.45-.16,3.05,.7,4.25,.54,.76,1.33,1.31,2.13,1.8,.7,.44,1.44,.85,2.24,1.02,1.24,.27,2.55-.05,3.67-.65,1.54-.83,2.81-2.23,3.28-3.92,.32-1.13,.28-2.34,.1-3.5Z"/>
      <path class="cls-1" d="M89.05,67.82c-.06-3.72,2.96-6.62,6.62-6.62s6.62,2.9,6.62,6.56-2.9,6.62-6.62,6.62-6.62-2.84-6.62-6.56Z"/>
      <path class="cls-1" d="M115.93,59.31c-.06-3.72,2.96-6.62,6.62-6.62s6.62,2.9,6.62,6.56-2.9,6.62-6.62,6.62-6.62-2.84-6.62-6.56Z"/>
      <path class="cls-1" d="M142.6,67.66c-.06-3.72,2.96-6.62,6.62-6.62s6.62,2.9,6.62,6.56-2.9,6.62-6.62,6.62-6.62-2.84-6.62-6.56Z"/>
      <path class="cls-1" d="M117.05,86.6c-.06-3.72,2.96-6.62,6.62-6.62s6.62,2.9,6.62,6.56-2.9,6.62-6.62,6.62-6.62-2.84-6.62-6.56Z"/>
      <g>
        <path class="cls-1" d="M20.92,15.5v12.17c-1.65,.65-3.35,1.17-5.1,1.57-1.75,.39-3.28,.59-4.59,.59-3.01,0-5.63-1.01-7.87-3.02-2.24-2.01-3.36-5.17-3.36-9.46,0-4.06,1.48-7.44,4.44-10.17,2.96-2.72,6.67-4.08,11.15-4.08,1.2,0,2.25,.13,3.14,.39,.89,.26,1.33,.58,1.33,.94,0,.16-.12,.31-.35,.47l-1.92,1.14-.35,.12c-.24,0-.35-.1-.35-.31l.04-.16,.08-.16c0-.24-.57-.46-1.71-.69s-2.26-.33-3.36-.33l-2.08,.12c-4.55,2.51-6.83,6.44-6.83,11.78,0,3.82,1.05,6.77,3.14,8.85,2.09,2.08,4.54,3.12,7.34,3.12,1.54,0,2.87-.16,3.96-.47v-9.51c0-1.02-.34-1.53-1.02-1.53-.18,0-.46,.08-.82,.24l-.27,.08c-.13-.13-.2-.22-.2-.27,.1-.16,.21-.25,.31-.28l4.16-1.61,.47-.2,.31-.08c.21,0,.31,.25,.31,.75Z"/>
        <path class="cls-1" d="M34.58,16.93v10.82c0,.45,.07,.67,.2,.67h.24c.13,.13,.2,.24,.2,.32,0,.16-.12,.28-.35,.36l-2.83,.89h-.31c-.18,0-.27-.21-.27-.63V14.72c0-.79-.05-1.3-.14-1.53-.09-.24-.29-.35-.61-.35-.21,0-.58,.11-1.1,.31l-.24,.04c-.16,0-.24-.09-.24-.27,0-.1,.18-.24,.54-.39l3.64-1.41c.31-.1,.57-.18,.77-.24,.21,0,.31,.26,.31,.79v4.87c.86-1.75,1.83-3.13,2.9-4.14,1.07-1.01,2.09-1.51,3.06-1.51,1.1,0,1.65,.29,1.65,.86-.05,.26-.11,.42-.16,.47l-1.14,2.04c-.11,.21-.23,.31-.37,.31-.27,0-.41-.09-.41-.27v-.16c0-.26-.36-.39-1.08-.39-1.57,0-2.99,1.06-4.26,3.19Z"/>
        <path class="cls-1" d="M56.29,19h-5.77l-.04,1.45c0,2.27,.56,4.12,1.69,5.57,1.12,1.45,2.58,2.17,4.36,2.17,1.36,0,2.38-.22,3.06-.67,.68-.45,1.11-.69,1.3-.75l.24,.23c0,.08-.13,.21-.39,.39-.26,.18-.82,.52-1.67,1.01-.85,.49-1.65,.85-2.39,1.08-.75,.23-1.52,.35-2.34,.35-2.09,0-3.76-.76-4.98-2.27-1.23-1.52-1.85-3.54-1.85-6.07,0-2.79,.9-5.24,2.71-7.32s3.91-3.13,6.32-3.13c1.49,0,2.71,.53,3.67,1.59,.96,1.06,1.43,2.4,1.43,4.02,0,.52-.05,.88-.16,1.08s-.42,.39-.94,.59c-.52,.2-1.17,.36-1.94,.49-.77,.13-1.54,.2-2.3,.2Zm-5.53-1.45h8.05c0-3.45-1.44-5.18-4.32-5.18h-.67c-.86,.71-1.52,1.46-1.98,2.25-.46,.79-.82,1.77-1.08,2.93Z"/>
        <path class="cls-1" d="M76.9,19h-5.77l-.04,1.45c0,2.27,.56,4.12,1.69,5.57,1.12,1.45,2.58,2.17,4.36,2.17,1.36,0,2.38-.22,3.06-.67,.68-.45,1.11-.69,1.3-.75l.24,.23c0,.08-.13,.21-.39,.39-.26,.18-.82,.52-1.67,1.01-.85,.49-1.65,.85-2.39,1.08-.75,.23-1.52,.35-2.34,.35-2.09,0-3.76-.76-4.98-2.27-1.23-1.52-1.85-3.54-1.85-6.07,0-2.79,.9-5.24,2.71-7.32s3.91-3.13,6.32-3.13c1.49,0,2.71,.53,3.67,1.59,.96,1.06,1.43,2.4,1.43,4.02,0,.52-.05,.88-.16,1.08s-.42,.39-.94,.59c-.52,.2-1.17,.36-1.94,.49-.77,.13-1.54,.2-2.3,.2Zm-5.53-1.45h8.05c0-3.45-1.44-5.18-4.32-5.18h-.67c-.86,.71-1.52,1.46-1.98,2.25-.46,.79-.82,1.77-1.08,2.93Z"/>
        <path class="cls-1" d="M93.93,16.65v11.1c0,.45,.07,.67,.2,.67l.24-.04c.13,.16,.2,.29,.2,.4,0,.13-.12,.24-.35,.32l-2.83,.89h-.31c-.18,0-.27-.21-.27-.63V14.72c0-.81-.04-1.33-.12-1.55-.08-.22-.29-.33-.63-.33-.05,0-.16,.02-.33,.06-.17,.04-.41,.11-.73,.22h-.27c-.13-.1-.2-.18-.2-.23,0-.13,.17-.27,.51-.42l3.69-1.37c.31-.1,.58-.18,.79-.23,.21,0,.31,.26,.31,.79v3.18c0,.52-.05,1-.16,1.41,2.77-3.53,5.36-5.3,7.77-5.3,1.26,0,2.17,.37,2.75,1.1s.86,1.92,.86,3.54v11.37c0,.92,.3,1.38,.9,1.38l.51-.09,.43-.13,.27-.09,.2,.2c0,.16-.18,.31-.55,.44l-2.59,.88c-.5,.16-.79,.25-.88,.28-.09,.03-.26,.04-.49,.04-.42,0-.68-.12-.79-.37-.1-.25-.16-.89-.16-1.91v-11.21c0-1.26-.16-2.12-.49-2.58-.33-.46-.95-.69-1.86-.69s-1.86,.3-2.83,.91c-.97,.6-1.9,1.48-2.79,2.64Z"/>
        <path class="cls-1" d="M127.42,27.91l2.45-1.22h.45l.07,.21-.08,.17-.04,.21c.03,.22,.52,.44,1.47,.66,.96,.22,1.93,.33,2.92,.33l1.61-.12c1.41-1.05,2.12-2.52,2.12-4.4,0-1.23-.29-2.21-.86-2.95-.58-.73-1.92-1.89-4.02-3.48-2.11-1.58-3.53-2.89-4.26-3.91-.73-1.02-1.1-2.13-1.1-3.34,0-1.97,.93-3.62,2.79-4.95,1.86-1.34,4.16-2,6.91-2,1.12,0,2.03,.12,2.71,.35,.68,.24,1.02,.55,1.02,.94,0,.18-.13,.34-.39,.47l-1.96,.98-.39,.12c-.18-.13-.27-.22-.27-.27l.04-.16,.04-.2c-.03-.21-.42-.39-1.19-.55-.77-.16-1.69-.24-2.75-.24-.57,0-1.16,.04-1.76,.12-1.09,.99-1.64,2.28-1.64,3.85,0,1.65,.47,2.92,1.41,3.81s1.6,1.5,1.97,1.83c.38,.33,.8,.66,1.27,1l.82,.59,.78,.63,.82,.59c2.27,1.65,3.4,3.48,3.4,5.5,0,2.2-1.11,3.98-3.32,5.34s-4.51,2.04-6.89,2.04c-1.31,0-2.38-.14-3.22-.41-.84-.27-1.26-.62-1.26-1.04,0-.21,.11-.37,.32-.47Z"/>
        <path class="cls-1" d="M158.07,19.1v-3.45c0-1.28-.18-2.14-.55-2.58-.37-.44-1.07-.67-2.12-.67l-1.14,.04c-1.05,.66-1.64,1.31-1.77,1.96-.13,.65-.55,1.13-1.26,1.43-.71,.3-1.14,.45-1.3,.45-.18,0-.27-.09-.27-.28,0-.31,.15-.7,.45-1.16,.3-.46,1.09-1.22,2.38-2.3,1.28-1.07,3.17-1.61,5.65-1.61,2.04,0,3.06,1.19,3.06,3.58v11.8c0,.79,.07,1.31,.2,1.57s.41,.39,.82,.39c.39,0,.94-.13,1.65-.39l.24-.08,.24,.23c-.18,.18-.35,.29-.51,.35l-2.9,1.08c-.55,.23-1.03,.35-1.45,.35-.86,0-1.3-.73-1.3-2.18l.12-1.79c-1.57,2.64-3.47,3.96-5.69,3.96-2.43,0-3.65-1.27-3.65-3.8,0-1.78,.72-3.21,2.16-4.31,1.44-1.1,3.75-1.97,6.95-2.62Zm0,6.46v-5.66c-3.98,.6-5.97,2.34-5.97,5.23,0,.89,.2,1.57,.6,2.05,.4,.48,.97,.72,1.7,.72,.62,0,1.21-.17,1.77-.53,.56-.35,1.19-.96,1.89-1.82Z"/>
        <path class="cls-1" d="M175.5,12.83v14.92c0,.45,.06,.67,.2,.67l.24-.04c.13,.16,.2,.29,.2,.4,0,.13-.12,.24-.35,.32l-2.87,.89h-.27c-.18,0-.27-.21-.27-.63V12.83h-2.83c-.29,0-.43-.08-.43-.24,0-.1,.08-.2,.24-.27l.27-.08,2.75-.98v-1.77c0-2.51,.92-4.72,2.75-6.63,1.83-1.91,3.98-2.87,6.44-2.87,1.07,0,1.61,.22,1.61,.67-.05,.13-.12,.22-.2,.27l-.31,.28-1.33,.98c-.29,.21-.47,.33-.55,.37-.08,.04-.16,.07-.24,.1-.18,0-.27-.13-.27-.39,0-.1-.17-.2-.51-.28-.34-.08-.76-.12-1.26-.12-.39,0-.92,.09-1.57,.27-.52,.63-.89,1.39-1.1,2.28-.21,.89-.31,2.13-.31,3.73v3.1h6.24c.29,0,.43,.08,.43,.24,0,.13-.16,.25-.47,.35l-2.04,.59c-.52,.16-.98,.26-1.37,.31-.39,.05-1.02,.08-1.88,.08h-.9Z"/>
        <path class="cls-1" d="M194.77,19.1v-3.45c0-1.28-.18-2.14-.55-2.58-.37-.44-1.07-.67-2.12-.67l-1.14,.04c-1.05,.66-1.64,1.31-1.77,1.96-.13,.65-.55,1.13-1.26,1.43-.71,.3-1.14,.45-1.3,.45-.18,0-.27-.09-.27-.28,0-.31,.15-.7,.45-1.16,.3-.46,1.09-1.22,2.38-2.3,1.28-1.07,3.17-1.61,5.65-1.61,2.04,0,3.06,1.19,3.06,3.58v11.8c0,.79,.07,1.31,.2,1.57s.41,.39,.82,.39c.39,0,.94-.13,1.65-.39l.24-.08,.24,.23c-.18,.18-.35,.29-.51,.35l-2.9,1.08c-.55,.23-1.03,.35-1.45,.35-.86,0-1.3-.73-1.3-2.18l.12-1.79c-1.57,2.64-3.47,3.96-5.69,3.96-2.43,0-3.65-1.27-3.65-3.8,0-1.78,.72-3.21,2.16-4.31,1.44-1.1,3.75-1.97,6.95-2.62Zm0,6.46v-5.66c-3.98,.6-5.97,2.34-5.97,5.23,0,.89,.2,1.57,.6,2.05,.4,.48,.97,.72,1.7,.72,.62,0,1.21-.17,1.77-.53,.56-.35,1.19-.96,1.89-1.82Z"/>
        <path class="cls-1" d="M212.04,16.93v10.82c0,.45,.07,.67,.2,.67h.24c.13,.13,.2,.24,.2,.32,0,.16-.12,.28-.35,.36l-2.83,.89h-.31c-.18,0-.27-.21-.27-.63V14.72c0-.79-.05-1.3-.14-1.53-.09-.24-.29-.35-.61-.35-.21,0-.58,.11-1.1,.31l-.24,.04c-.16,0-.24-.09-.24-.27,0-.1,.18-.24,.54-.39l3.64-1.41c.31-.1,.57-.18,.77-.24,.21,0,.31,.26,.31,.79v4.87c.86-1.75,1.83-3.13,2.9-4.14,1.07-1.01,2.09-1.51,3.06-1.51,1.1,0,1.65,.29,1.65,.86-.05,.26-.11,.42-.16,.47l-1.14,2.04c-.11,.21-.23,.31-.37,.31-.27,0-.41-.09-.41-.27v-.16c0-.26-.36-.39-1.08-.39-1.57,0-2.99,1.06-4.26,3.19Z"/>
        <path class="cls-1" d="M227.04,27.56V14.44c0-.6-.05-1-.16-1.21-.1-.21-.33-.31-.67-.31-.18,0-.51,.09-.98,.27l-.24,.08-.24-.24c0-.13,.18-.27,.55-.43l3.89-1.53,.63-.2c.16,0,.25,.05,.29,.16,.04,.11,.06,.34,.06,.71v15.23c0,.92,.3,1.37,.9,1.37l.51-.09,.43-.13,.27-.09,.2,.2c0,.16-.2,.3-.59,.43l-2.57,.86c-.49,.16-.79,.25-.88,.28-.09,.03-.25,.04-.49,.04-.42,0-.68-.12-.78-.37-.1-.25-.16-.88-.16-1.9Zm-.63-23.56l2.59-1.1,.39-.16c.05,0,.1,.04,.16,.12,.05,.08,.09,.13,.12,.16l-.16,.39-.04,.24c0,.29,.13,.54,.39,.75,.26,.21,.56,.31,.9,.31l.67-.12,.27-.08c.13,.13,.2,.22,.2,.27-.1,.16-.22,.25-.35,.28l-1.57,.59c-.81,.29-1.45,.43-1.92,.43-.52,0-.99-.16-1.41-.47-.42-.31-.63-.68-.63-1.1,0-.24,.13-.41,.39-.51Z"/>
        <path class="cls-1" d="M241.4,27.52c0,.24,.33,.43,.99,.59,.66,.16,1.48,.24,2.44,.24h1.09c.81-.89,1.21-1.81,1.21-2.75,0-.84-.23-1.54-.7-2.09-.47-.55-1.49-1.34-3.07-2.36-1.58-1.02-2.67-1.89-3.28-2.62-.61-.72-.92-1.53-.92-2.42,0-1.47,.75-2.7,2.26-3.68s3.37-1.48,5.59-1.48c1.02,0,1.84,.11,2.47,.33,.63,.22,.94,.52,.94,.88,0,.16-.05,.27-.16,.35l-2.1,.98c-.05,.03-.11,.05-.16,.06-.05,.01-.11,.03-.16,.06l-.24-.24,.04-.2c0-.21-.33-.4-.97-.57-.65-.17-1.4-.25-2.26-.25h-1.01c-.73,.73-1.09,1.57-1.09,2.52,0,.79,.28,1.49,.84,2.11s1.65,1.42,3.26,2.42c1.61,1,2.66,1.79,3.14,2.38,.48,.59,.72,1.37,.72,2.34,0,1.65-.77,3.02-2.32,4.09-1.54,1.08-3.53,1.61-5.97,1.61-1.02,0-1.84-.11-2.47-.33-.63-.22-.94-.49-.94-.82,.03-.05,.05-.11,.08-.17,.03-.06,.08-.12,.16-.17l2.04-1.13,.31-.12c.16,.13,.24,.22,.24,.28v.16Z"/>
      </g>
    </g>
  </g>
</svg>