<svg xmlns="http://www.w3.org/2000/svg" xmlns:xlink="http://www.w3.org/1999/xlink" viewBox="0 0 1246.55 303.2"><defs><style>.cls-1{fill:none;}.cls-2{clip-path:url(#clip-path);}.cls-3{isolation:isolate;}.cls-4{fill:#259ed3;}.cls-5{fill:#e50279;}.cls-6{fill:#fceb22;}</style><clipPath id="clip-path" transform="translate(-16.74 -20.25)"><rect class="cls-1" width="1285" height="338"/></clipPath></defs><g id="Layer_2" data-name="Layer 2"><g id="Layer_1-2" data-name="Layer 1"><g class="cls-2"><g id="printwild-logo-2"><g id="Group_709" data-name="Group 709"><g id="print" class="cls-3"><g class="cls-3"><path d="M16.74,67.72H31.57V88.91q8.79-12.07,20.22-18.12a53.84,53.84,0,0,1,25.51-6q24.56,0,42,17.7A58.41,58.41,0,0,1,136.79,125q0,25.42-17.31,43.18T77.72,186a56.05,56.05,0,0,1-25.29-5.73,63.68,63.68,0,0,1-20.86-17.05v62H16.74ZM76.08,79.06q-19.24,0-32.41,13.44T30.51,125.94a47.46,47.46,0,0,0,5.87,23.6,42.73,42.73,0,0,0,16.81,16.62,46.52,46.52,0,0,0,23.1,6.14,43.52,43.52,0,0,0,22.46-6.19,45.51,45.51,0,0,0,16.76-17.31,46.77,46.77,0,0,0,0-46.56A44.64,44.64,0,0,0,76.08,79.06Z" transform="translate(-16.74 -20.25)"/><path d="M158.93,67.72h15.16V84.57q6.78-10,14.3-14.89a28.18,28.18,0,0,1,15.68-4.93q6.15,0,13.14,3.92l-7.73,12.51a20.56,20.56,0,0,0-7.84-2q-7.42,0-14.31,6.09t-10.49,18.92Q174.08,114,174.09,144v39H158.93Z" transform="translate(-16.74 -20.25)"/><path d="M235,20.25a11.77,11.77,0,0,1,8.65,3.6,11.88,11.88,0,0,1,3.59,8.69A12.29,12.29,0,0,1,235,44.73a11.62,11.62,0,0,1-8.55-3.61,11.73,11.73,0,0,1-3.58-8.58,11.87,11.87,0,0,1,3.58-8.69A11.65,11.65,0,0,1,235,20.25Zm-7.37,47.47h14.84V183H227.59Z" transform="translate(-16.74 -20.25)"/><path d="M273.26,67.72H288.1V88.38Q297,76.52,307.8,70.63a48.46,48.46,0,0,1,23.53-5.88,40.9,40.9,0,0,1,22.94,6.57A39.17,39.17,0,0,1,369.05,89q4.77,11.12,4.77,34.64V183H359V128q0-19.92-1.65-26.6Q354.75,90,347.44,84.2t-19.07-5.78a36.59,36.59,0,0,0-24.11,8.9,41.62,41.62,0,0,0-14,22q-2.13,8.58-2.12,31.36V183H273.26Z" transform="translate(-16.74 -20.25)"/><path d="M418.53,24.91h14.83V67.72h23.53V80.54H433.36V183H418.53V80.54H398.29V67.72h20.24Z" transform="translate(-16.74 -20.25)"/></g></g><g id="Wild" class="cls-3"><g class="cls-3"><path d="M576.18,39.56l6-4.36L585.3,37l1.59-1.19,3.76,8.32,4,1.79,5,4.75,2.18-.19,2.58,1.58,2.58-3.57,22-8.52-1,7.53-7.73,27.16L618,81v3.38L592,148l-16.26,37.27-1.58,4.36-2-.59L561.51,216.2l4.56-8.33.79.6,43.82-50.56L634.46,129l-3.17,2.18L640,120.84l.19-4.76-7.73,6.35,7.34-8.92,10.9-8.13,7.34-7.14,7.73-5.35-1.59,5.75,2.18.59.79,2.78-3.37,4.76,3.37-1.19,9.12-4.56,2,1,2.38,6.94-2,24-.79-6.74-1.39,28.55v12.69l3.37,22.2,8.92,29.54,10.11,18.63,3,3.57,2.38,2.58,6.14,7.93,16.85,10.9,6.74,1.79.4,1.78,8.52,1.79c.13,0,1.65-.13,4.56-.4.8-.13,1.52-.23,2.18-.3a13.82,13.82,0,0,0,1.89-.3A7.11,7.11,0,0,1,753,267a18.78,18.78,0,0,1,2.58-.2l8.53-2.78,3.76-2.57,3-3.37,4.36-8.93,3-9.71,2.18-5,6.15-26.16,5.35-37.07,1-30.14.2,25.38-1.39,21,2.78-21.61,1,2.38L797,137.49l-.2-42.62L795.24,81l4.56,23,1.19,4.76,3,28.35.79-7.34L804,123l-1.39-16.45-.19-2.38V94.08l-.2-4.76L800.79,81,800,69.5l.79-1.59V69.5L805.94,83l3.37,17.24.2,32.71,2.38,2.78.4-9.52,1.19,2.18-.2-15.26-.4-8.72-1.39,2.18-.59-8.72-1.19-6.94,5,12.29.39,9.51.2,33.11-2.58,16.06-1,1.39v12.29l-2,16.65.4,6.54-.8,9.12,6.15-32.31,1,3.76,2.38-5.94,2,1.58-2.57,19.63,1-.4,4.95-19.62.2-3.18.6-3.17,2.37-28.94L825,105.38l1-2.38-3.18-26L826,84.76l3.17,34.5.2,36.87L825.17,193l-2.57,13.09,5.55-19,1.19-4.16.39-5.15,4-29.94-.2-32.51-1.78-24.38,2.77,19.62.79,14.87.2,31.92-3.17,20.62-4.76,20.22.8-6.35L818,223.53l-2.78,5.35-7.14,13.48-1.78,4.56h-.79c-.27,2.38-1,4.1-2.18,5.16l-.2,1.78h-1.39l12.29-28.54,3.37-9.72L822,203.91l2.18-22.21-2.38,10.51-2.57,9.51-2.58,11.9-3.37,9.52-3.77,6.74-1.19,6.93-9.91,19.63L795,257.83l-3,2.38.79-1.79,2.38-6.54,1.39-.59,2.77-6.55L785.92,261.2l-9.32,11.69-9.91,5.55-4.16,4.76-2.58,2,.6,3.57-5.36.6-2.57,1.78h-7.54l-4.56-.39L736,292.52l-8.32,1.39-10.31-2.18-1.19-1.59-2.38.6-2.18-2L706,287.17l-8.33-5.36-14.07-11.49-5.35-7.54,10.7,11.5,9.91,7.53,13.88,5.95.4.2,7.93,2.38,2-.4,5.95,2.58,10.5-2.38-12.29-3-12.88-4.76-.6-1.19-2.38-1.78-9.31-8.13-8.33-8.72-9.91-12.3-12.89-28.74-3.77-11.1-1.58,1.39,1,5.55,4.36,11.49,8.92,21.22,4.17,6.54,9.71,9.71,7.33,6.15,6.94,6.14.4,1.79,2.18,2-3.37.79-16.06-12.29-11.89-16.25-2-3.18q0-.19-1-1l-1.58,2.18,6.94,9.12,4.75,6.15-3-2.58-1.59-1.59-7.93-10.9-2.37-.79L668.76,257,663,256l-5.55-6.94-4.16-3.76-7.93-17.45-7.14-31.32-2.77-37.67.39-10.11-1.78,19.43L636.25,199l4.56,24.19-5.35-19.23-1.79-29.15-.2-23.39-8.12,9.91q-9.72,11.11-10.71,11.5L584.9,210.65l-5.15,7.93,3.17-2.19,12.49-15.85,5.55-5.75.4-.2-1.19,3.17-35.29,46-4.36,6.54L556,257.83l-19.43,27.55-1,2.58-1.39,2.18.2,1.59h-2.57l.39,1-3.57,3.76-3.37-.19-1.38,1.78-7.74,2.58-1-6.74-1.58,8.92-4.76.59L501.25,307l-1.19.4-1.19,2.38-1.79-.2-.2-.79-2.57-.2-.6,1.78-3.37-.79L488,310l8.53-16.86-.2,1.79,2.58-4.16,4.95-13.29,2-8.12,3.17-3.77L521.86,235l1.59-4.36,21.21-51.94.4-2.78,3.57-7.33,10.7-25.18,7.34-18.83-.6-2.18-.4-2.38-.79-3.57-2.18-1,3.77-9.32.39-1.19.2-1.78-1.58-.4-1.39,1.39-5,3.17-2,1-3,1.19-4.36,1.19-7.14,4.16-12.29,6.35-3.37.39-9.72,4,8.33-4.76-9.32,3L546.05,109l3-2-1.39-1.58h3.77l4.76-3.37,15.46-8.53v-3l-16.06,9.71-4,3.57,1.19-2.18-6.94.2,20-10.11,3.37-2.38-2-.79-1.78,1.78-2,.4-9.91,2.18-2.38,1.39L543.87,98l-1.79-3.56-1.38-.6-12.89,7.73,6.34-8.13-.39-2.37,7.13-4.56-9.31,3.37L528,91.3l1.19-1.58-2.58-6.54-4.16-1.39-9.72,5.15.4-1.39A6.31,6.31,0,0,0,517.7,79l-2.58-.59,12.69-8.92,8.33-4.76,5.55-3q0-1.4,5.55-5.16l21.61-11.3,6.74-4.76ZM538.52,211.64l1-8.13-2,2.77L533.76,215l-6.94,15.66L501.05,295.3l1-.2-1,6.94Zm13.87-32.91-3.57-.79-1.19,9.51-1.38,3,.59,7.74-33.9,83.06-2.77,9.12-4.76,10.51,8.92-15.07,40.24-100.51-4.16,2.18ZM524.24,282.41,529,269.13l-5.75,10.11-5,11.3,4.37-4.36Zm43.22-105.47-3.17.2-18.64,44.41-.39,9.32,2.57-6.74,8.33-13.88,10.51-28.94Zm37.86-4,5-7.14L594,184.68,591.25,190Zm10.11-6.34-.59-1.39-19,25,8.13-7.74,7.73-9.91Zm6.35-5.95v-5l-1.19,2.38v.79L619,162.27l-.2-1.78-3.56,4,2.37,1.19Zm14.07-16.85-.59-3-8.33,9.32-1.39,5.55,2.38-4.16,2-3.37.19,3ZM670,267.14l-2-3.37,8.92,7.54,4.76,7.53,12.68,9.52-10.9-6.94-5.75-4.36L668,266ZM750.83,282l-4.56.8-12.49.79-1,2,1.19-.4-.39,1.19,2-.19,3.76-1.39-.79,2.18ZM814.47,84V75.25l5.35,31.32-1.19,1.58Zm13.08,119.54,7.14-27-2.18,13.87-8.33,27.16,1,4L821,227.3l-5.75,12.49,2.58-9.32,2.18-4.16Z" transform="translate(-16.74 -20.25)"/><path d="M933.41,112.91l1,.4v2.38q0,3.57-4.17,13.48c-.53,1.72-.86,2.77-1,3.17l-1.39,2.78-.79,2.37a1.33,1.33,0,0,1-.1.6c-.07.13-.23.46-.49,1a3.33,3.33,0,0,1-.2.79c-.14.4-.33,1-.6,1.79h-1.19L917,162.47l-.79,2.58L915,167.43l-15.07,43-4.16,13.87a42,42,0,0,1-2.78,9.12l-1.39,5.36-2.18,7.33,4.17,3,2.38-1.58,11.49-6.74,3.77-2L908.83,243l1,1,2.58-1.59.79-.59.4.59-6.15,7.14,7.54-5.75-8.53,9.12.2.4,5.75-5,2.18-1.78,7.34-4-.4,2.18,1.59-.39,3.76-3,2.78-2.18,2.18-.59-3.57,5,8.13-5.35-15.66,15.27-8.13,8.92-13.09,14.67L890,288l-12.09,11.5-1.79.2-2.58,2.57-5.15,2.58-.79,1-1.59.6L863.24,308l-3.77,2a32.83,32.83,0,0,0-6.54,5.35,72,72,0,0,1-10.11,1.58q-3.77,0-3.77-3.37c0-.53.4-2.77,1.19-6.74l4.36-20L844,299.06l1.38-8.13,1.39-3.76v-2L852.93,262l1.78-5.95,3-12.68,13.08-42.23,7.93-26,11.7-33.11a55,55,0,0,1,5.35-10.9l2.77,4.36,5.55-10.9.4-.4,1.19.4v1.58l1.59.2,3-2.18,8.92-6.94,1.59-1.38,1.58,6.74a7,7,0,0,1,1.19-1.39,2.76,2.76,0,0,0,.5-.6,1.41,1.41,0,0,1,.29-.39l2-2.78Q927.86,115.29,933.41,112.91Zm-52.53,88,1.59-5h-1.19l-4.76,13.67-1.19,4.76-1.39,3.17-1.58,6.74-6.15,22L865,252.08l-4.16,14.67-1.39,4-.79,2,6.14-24.59.2-2.18-1-1.38,4-12.89,1-8.52,2.37-8.13,1-1.59.19-2-.39-2.38L870,211.24a12.34,12.34,0,0,1,.59,2.58q0,2.37-2.58,8.72a101,101,0,0,0-3,10.71c-.53,2.24-1.26,4.89-2.18,7.93l-3.17,10.9-.8.39-2,10.51-.39,1-2.38,1.39.39,2.58c-.13,1.06-.19,3.3-.19,6.74v4.95l-.6,1.59-1.19,3.57,3.57-3.17,1.59-6.74,1.58,3.37,8.33-30.53,12.88-45.4Zm45-148.88,23.79-3.37,8.72,1,14.47,2-3.76.19-.8,1.79,1.39.59h-4.16L960,52.84l-4,4.37,3.18.59-2,2-.39.6,5,2.38-13.68,1.58,9.52,4.76.79,1.39h-8.92l-3.37,2,4.16,1.78,3.18.8h1v1.19l-4-.4-.59,1.78,2.18.6-.6,1,4.56.2.8,1h3v2.18l-1.59-.79-5.55,1.78L956.41,85l-19.63,3L924.1,91.11l-19,3.76h-.8l-.59,1.39-1.39-.2-.2-1-.2-.79-8.32-.2,4-4.16,9.52-12.69,2-3.37c.13-.13,1.06-1.26,2.78-3.37q2-2.19,6.74-8.33l2-3L922.11,58l1.19-1.59,2-1.78h.19l2.78-.6Zm4.36-4.16,23.2-2.38,8.52.59L932,48.68l-4.76.4Z" transform="translate(-16.74 -20.25)"/><path d="M934.8,281.62l4.36-10.71,2.38-1.58-3,6.14L935.79,287,931,302l-1.38-.2.59-4.36Zm14.67-25.77,2.58-5.56.59,1.19L950.26,257,938,292.92l-1.38,6.34,1.58,4.36L936,300.45v1.19l-1.58-.79.79-4.17.2-1,4.16-12.88a12.85,12.85,0,0,1,1.78-3.57q1.59-4,3-8.33l3.57-10.31ZM1052.56,41.74l2.18-.2,6.14-1,5.16-.79.79,1.59h1.59L1069.8,40l2.78-.2-5,12.69-.59-3.17-8.33,17.44-14.27,28.75-11.7,23.19L1022,144l-21.81,49.76-23.39,58.87-3.77,12.89.8,3.57,2.18.39,7.93-7.33.59.59,12.09-11.69,1.59.79,2.38-2.78,5.55-3,3.57-3.57a3.17,3.17,0,0,1-.8,2l-7.53,7.92L996.06,258l-.6-.2-2.18,3,2,2.78,2.77-2,4.16-4.16,8.53-8.33,6.94-6.34,6.14,1.59,11.5-8.92.2-1,2-.79-.4.6,14.28-10.11,4.36-4,2.18-1.39-1.39,1.79-.79.59h-.2l-9.91,9.52-9.71,8.92-20.82,19-9.12,9.91,10.71-9.51,6.93-6.94,16.66-13.88,8.32-7.53a22.49,22.49,0,0,0,7.54-5l.39.8-10.7,9.31-4,3.57-33.7,30.73-26.56,25.37-8.13,6.15-3.57,2.77-2,2.19a23.66,23.66,0,0,0-4.76,4.95l-5.35,1.79,12.69-12.89-.2-2.18-4.17,4.36-2,2q-1.38,1.39-3.77,4.36l-2.18-1.78a2.46,2.46,0,0,0-.59.1,1.13,1.13,0,0,0-.6.3,1.73,1.73,0,0,1-.79.19.81.81,0,0,0-.59.2,2.27,2.27,0,0,1-1,.2,19.24,19.24,0,0,1-6.94,1.39l-3.17-6.74-3-2.38-.2,1.59-2,.39,5.16-20.81,4.36-11.5,3.37-8.53.59.4-.59-1.39,13.08-34.49-3,10.9,2-5.75,1-1a37,37,0,0,0-.79,3.77l-2.78,6.34-5.55,14.67L954,262l.4,1.78,12.69-32.9L971.67,212l-4.36,9.52,14.87-42.82L968.7,210.65l-15.26,36.67,17-45L975,190l.4-3,1.79-4-2-.2-23.59,57.69-.2.79-7.93,17.45L951.26,239l2.18-8.32,2.57-6.15,4.17-11.3,1.78-3.76,5.16-11.5,5-13.09,1.79-4.75,5.35-12.69a31.35,31.35,0,0,1,1-8.33l4.16-11.3a30,30,0,0,0,1.59-3.37l.39-.39,3.57-7.34,1,.2-1-.6,4-8.72,11.1-22.4-3.37,1.59-2.38.19a39.76,39.76,0,0,1-5.15,1c-.8,0-1.19-.33-1.19-1s1.05-3.23,3.17-7.33l3.76-4.36.2-3,.6.4.79-2-1.39.4,8.92-12.49-.59-.6,1.59-1.39,4.95-11.69,5.16-6.15,8.72-9.12,1.58,2,2.58-4.17,4-1.39L1049,44.72l2.38-1.39ZM982.18,142.25l3.17-5.75.8.6-5,11.89-6.94,15.27L961.17,194l-5,11.5-2,2.18L970.29,169Z" transform="translate(-16.74 -20.25)"/><path d="M1249.41,34.21l1.59-2,3.76-1,3,2a19.29,19.29,0,0,1,.59,3.77q0,3.16-4.95,11.1l3.17-1.59,1.39,1.39-.6,2.38-.79.79-1,2,2-1.38,1.19-.8,1.19-4.76,3.17-.39.2,1.39L1259.72,55a33.55,33.55,0,0,1-9.32,11.69l-.2.79-3.37,4-10.11,17.25-21.8,47.77-11.5,27.76-2.38,7.53-1.59-.59-2.57,5.94-.2.2-10.31,27.36-11.89,34.49-4.17,13.09,11.1-9.12-.19,2.57,2.18,1.39,2.57-.2.6-.79h1.19l4.76-4.76.19.4,3.57-3.57q2.38-1.19,15.66-5.15l1.59-1.59,4.36-3a9.09,9.09,0,0,1,3.77-1.19c1.19,0,1.85.46,2,1.39s.33,1.38.6,1.38l.19-.19.2-.2a47.61,47.61,0,0,1,9.72-8.13l-1.19,1.78-4.76,4-.2,1.39,1.78,1,1.59-.4,1.19-1.19-.6,2.38-.59,2.38-1.19,1.39L1226,240l-2.58,2a45.77,45.77,0,0,1-4.36,5.35l-1,2.78-20.42,19.42-2.77,2.58-14.67,14.08-13.09,15.06-6,8.13-3.17,3.17-12.09,8.33-2.58,1.19.2.79-6.54.6,1-1.39,1.19.39-.6-1L1133,311.15l1.19-1.58h.8l2-1.59,1.58.2-.59-2.38-9.91-4.36q-5.55-2.38-5.55-6.74a9.53,9.53,0,0,1,2.38-5.95l11.69-13.48,5.75-5.75,3.17-12.29,1.39-5.94,5.35-18,1-3.37,2.58-5.75c.27-1.06.5-1.89.7-2.48a5,5,0,0,0,.29-1.29l1.19-2.18a35,35,0,0,0,2.38-5.55l.6-5-6.55,14.87-4.36,8.92-8.32,14.27c0-.66-.14.73-.4,4.17a10.92,10.92,0,0,1-2,6.14q-1.4,2-6.54,2l-3.57,2.57-3.37,12.69-6.74,16.06,3.17-10.71.59-4.56h-1.78l-2,5.16,3-15.47-6.34,6-5.16,3-4.16,3.76-2.18.6L1087.05,289l-2,.2-9.52,4-2.57-.19-7.34,4.36-.2,2.38-10.9,4.95-3,.8-5.16,1.58a45.69,45.69,0,0,1-6.74.6,19.44,19.44,0,0,0-5.15-2l-3.37-.39-5.36-4.76a3.51,3.51,0,0,1-1.58-2l-3-12.69v-7.93l.59-1.39-.4-.59,1.39-5.16,2.38-11.89,1.59-4.56.79-2.78,9.51-24.18,4.17-7.73,6.74-11.9,8.92-12.69,17.44-21.21,2.38-2.18a28,28,0,0,0,8.33-4.36l3.57-1-.4,3.37-4.16,6.54-6.94,10.51-1.78,5q-.6.79-3.57,3.77l-1.59,4.76,1.19-.4,7.93-11.69,8.52-10.91,4.17-6.34,15.06-19.23,1.19,1.19,8.73-8.92,8.12.59h2.58l.79-1.58,1.59-1v-1.19h16.85l8.92,2.77,1.19-.4,13.28,7.34-.79-4.16,5-10.51,3-7.53-4-9.92,4.55-5.15,2.58-3-.39-1.19L1205,68.51l8.72-12.69,2.18-4.56,1.39-.4,4,.4,1.59-2.18,12.68-7.73,3.57-3,.8-2.38,4.95-1.38,1.59.39.39-.79Zm-188.13,259.7-5-1.19a19.14,19.14,0,0,0-4.16,8.32l-.79-1-1.39.2-1.39,2.58,3.17-1.79.6,2,10.11-5Zm69-124.1-6.94-1.59L1114,167l-20.42,29.14-9.71,14.28-4.56,2.77c-.4.8-1.12,2.25-2.18,4.36a10.58,10.58,0,0,1-.89,1.79c-.47.79-.83,1.45-1.09,2l-1,2.38-3.57,7.93-5,16.85-1.19,3.77a21.48,21.48,0,0,0-1.19,7.53,43.19,43.19,0,0,0,1.39,10.51v.39l2.78,5.55,1.78,1,1.59,1,5.94-.6q-7.34-4.75-8.32-7.73l-1.19-5.95-1.79-3.76.8-3.37,1.78-7.54,1.59-7.73-1.19,8.53-.6,12.49,1.59,5.55,2.77,4.36,2,.59.79,1.39,10.31-2.38,4.16-2.77,2.58-2.78,8.13-8.52,4.75-5.56,2.78-2.77,7.73-11.1,12.09-13.28,10.71-16.66-4.56,10.51,10.7-14.87,4.17-9.51,2.57-7.14,6-15.07-2.58-1.38-2.57,1-1.39.39.4,1,2,1-2.78,1.18-2.77,1.19-3-1Zm-19.43-1-.59-.4-8.93,11.5-2.57,3.76a35.73,35.73,0,0,0-4.76,6.15,35.43,35.43,0,0,0-3,4.36h-.6l-5.15,8.92.59,1.19,6.74-9.51,6.74-10.51Zm20.22-9.12-6.34-.4-5,1-3,3.37h10.5l2.78-3ZM1144.94,234l2.18-6.54-6.34,8.32-.2.4-2.38,9.91,3.57-3Zm5.35-14.47,4-11.3-2.38,3-6,12.69-1.78,1.78-5.56,9.72,7.74-10.91Zm9.52-43V170.4l-2.58,6.74-9.32,22.8,7.73-12.29Zm31.91,8.52,2.38-9.51L1185.58,191l-3,7.93-3,7.14L1168.13,236l2-2.38a24.46,24.46,0,0,1-3.57,10.71v-1l-.2-1.39a21.9,21.9,0,0,0-2.38,8.13l2.58,1.19,1.58-1,.4-3,3.37-7.53Zm-5.94-52.93,11.89-23.59-3.57,2.58-2.38,2.38-1.58,3.76-.2,1.19-.79.2-1,2.58-4.76,11.89-5.16,11.5,2,1.19Zm9.12-3.57,11.1-23.19-5.16,2-2.18,6.15a85,85,0,0,0-6.14,12.29l-5,14.07-2.58,5.95-1.19,2.58,8.53-14.87Zm35.28-33.3-12.09,25-4.56,10.31-2.38,3.76-2,4.76a76.74,76.74,0,0,0-6.74,15.86l-2.38,4.56,3,1.39v-2.78l5.75-10.7,5-12.1,6.74-14.27,1.78-4.16,2.18-5.95L1230.78,98a54.25,54.25,0,0,1,3.57-6.93Q1234.35,88.92,1230.18,95.27Z" transform="translate(-16.74 -20.25)"/></g></g><g id="Ellipse_13" data-name="Ellipse 13"><circle class="cls-4" cx="407.26" cy="204.75" r="18"/></g><g id="Ellipse_14" data-name="Ellipse 14"><circle class="cls-5" cx="334.26" cy="204.75" r="18"/></g><g id="Ellipse_15" data-name="Ellipse 15"><ellipse class="cls-6" cx="261.76" cy="204.75" rx="18.5" ry="18"/></g><g id="Ellipse_16" data-name="Ellipse 16"><circle cx="189.26" cy="204.75" r="18"/></g></g></g></g></g></g></svg>