<svg class="bg-svg" preserveAspectRatio="xMidYMid meet" xmlns="http://www.w3.org/2000/svg" viewBox="0 0 1920 1080" width="1920" height="1080" style="width:100%; height:100%"><rect width="1920" height="1080" fill="#7812ff"></rect><g><g transform="translate(331 202)"><path d="M180.7 -58.9C202.5 8.3 166.6 94.1 105.3 136.6C44.1 179.1 -42.4 178.3 -103.5 135.6C-164.5 92.9 -200 8.2 -178.5 -58.7C-157 -125.5 -78.5 -174.5 0.5 -174.6C79.5 -174.8 158.9 -126.1 180.7 -58.9Z" stroke="#80a3b1" fill="none" stroke-width="20"></path></g><g transform="translate(1834 1011)"><path d="M87.2 -28.5C98.9 7.7 84.6 52.1 51.7 77.5C18.8 102.9 -32.6 109.3 -67.3 85.7C-101.9 62.1 -119.9 8.7 -105.9 -30.7C-91.9 -70 -45.9 -95.3 -4.1 -93.9C37.8 -92.6 75.5 -64.7 87.2 -28.5Z" stroke="#80a3b1" fill="none" stroke-width="20"></path></g><g transform="translate(49 739)"><path d="M103.6 -33.4C116 4.4 95.2 53.4 59.1 78.9C23.1 104.5 -28 106.8 -60.6 83.2C-93.1 59.6 -107 10.2 -93.8 -28.8C-80.6 -67.8 -40.3 -96.3 2.7 -97.2C45.6 -98 91.2 -71.2 103.6 -33.4Z" stroke="#80a3b1" fill="none" stroke-width="20"></path></g></g></svg>