 <svg class="bg-svg" xmlns="http://www.w3.org/2000/svg" style="width: 100%; height: 100%;" viewBox="0 0 1920 1080" preserveAspectRatio="xMidYMid meet" width="1920" height="1080"><rect width="1920" height="1080" fill="#80a3b1"></rect><g><g transform="translate(368 33)"><path d="M203.6 -65.5C228.7 11.1 189.6 109.1 117.7 161.2C45.7 213.3 -59.1 219.5 -128.4 170.6C-197.8 121.6 -231.6 17.7 -204.3 -61.9C-177 -141.6 -88.5 -196.9 0.4 -197C89.3 -197.1 178.5 -142.1 203.6 -65.5Z" fill="#7812ff"></path></g><g transform="translate(1432 979)"><path d="M169.3 -59.9C188.1 2.9 150.5 79.1 89.3 123.7C28.2 168.3 -56.5 181.3 -106.5 145.3C-156.5 109.3 -171.9 24.2 -148.3 -45.1C-124.8 -114.3 -62.4 -167.8 6.4 -169.9C75.2 -172 150.5 -122.7 169.3 -59.9Z" fill="#7812ff"></path></g><g transform="translate(285 956)"><path d="M82.8 -22.9C95.8 13.2 87 60.4 58 82C29 103.5 -20.2 99.5 -51 75.8C-81.8 52.1 -94.2 8.7 -82.6 -25.4C-71 -59.4 -35.5 -84.2 -0.3 -84.1C34.9 -84 69.8 -59 82.8 -22.9Z" fill="#7812ff"></path></g></g></svg>