<svg fill="#6200ff" xmlns="http://www.w3.org/2000/svg" xmlns:xlink="http://www.w3.org/1999/xlink" version="1.1" x="0px" y="0px" viewBox="0 0 128 160" enable-background="new 0 0 128 128" xml:space="preserve"><g><path d="M51.195,46.482l-5.673,2.927c1.36,3.973,3.075,7.335,4.761,10.056l4.47-6.173L51.195,46.482z"/><path d="M68.01,76.899c2.876,1.83,6.215,3.588,9.888,4.878l2.925-5.667l-6.811-3.558L68.01,76.899z"/><path d="M65.508,19.409C40.92,19.409,20.917,39.413,20.917,64c0,7.523,1.911,14.938,5.534,21.508l-8.398,20.318   c-0.292,0.706-0.156,1.515,0.349,2.087c0.385,0.437,0.934,0.677,1.5,0.677c0.176,0,0.354-0.023,0.528-0.071l22.393-6.132   c6.857,4.061,14.681,6.203,22.686,6.203c24.587,0,44.591-20.003,44.591-44.591S90.095,19.409,65.508,19.409z M85.291,76.177   l-4.619,8.949c-0.351,0.679-1.045,1.083-1.777,1.083c-0.194,0-0.39-0.028-0.584-0.087c-13.578-4.145-23.037-14.228-24.065-15.357   c-0.956-0.85-8.93-8.234-13.062-21.77c-0.282-0.924,0.137-1.918,0.996-2.361l8.95-4.618c0.977-0.505,2.18-0.125,2.689,0.851   l5.052,9.67c0.352,0.672,0.292,1.485-0.152,2.099l-6.041,8.342c2.372,3.164,4.247,4.818,4.285,4.852   c0.032,0.027,0.055,0.061,0.084,0.089c0.032,0.031,0.069,0.056,0.099,0.09c0.05,0.056,2.795,3.088,7.369,6.483l8.154-5.905   c0.614-0.445,1.427-0.503,2.099-0.153l9.671,5.053C85.415,73.996,85.795,75.199,85.291,76.177z"/></g></svg>