<?xml version="1.0" encoding="UTF-8"?><svg id="Layer_2" xmlns="http://www.w3.org/2000/svg" viewBox="0 0 1609.07 374"><defs><style>.cls-1{fill:#fff;}.cls-2{fill:#daad86;}.cls-3{fill:#594b40;}</style></defs><g id="Layer_1-2"><g><g><path class="cls-1" d="M157.9,105.16l-8.98,56.52c-1.25,7.86-2.39,16.63-3.42,26.32-1.03,9.67-1.96,20.76-2.84,33.26-2.91-27.85-6.33-51.95-10.27-72.33l-8.25-43.77h-42.37l-9.2,52.04c-2.59,15.03-4.72,30.87-6.37,47.54l-1.53,14.28-1.66-16.63c-1.18-11.4-3.3-27.1-6.37-47.09l-8.03-50.14H0l40.6,182.2h47.92l9.31-66.1c.78-5.51,1.46-10.73,2.02-15.68,.54-4.97,1.01-9.69,1.4-14.17,.8-8.81,1.38-14.82,1.77-18.05,.17,1.57,.43,3.85,.84,6.83,.39,3.01,.86,6.74,1.4,11.22,1.1,9.05,2.76,19.75,4.97,32.09l11.33,63.86h47.43l36.94-182.2h-48.03Z"/><path class="cls-1" d="M218.67,105.16v182.2h49.2V105.16h-49.2Z"/><path class="cls-1" d="M342.56,243.57V105.16h-49.2v182.2h86.14v-43.79h-36.94Z"/><path class="cls-1" d="M485.8,186.99c0-21.19,3.1-41.63,8.9-60.93-.43-.47-.88-.9-1.33-1.33-13.53-13.05-32.46-19.58-56.76-19.58h-42.48v182.2h46.03c25.41,0,44.52-7.02,57.34-21.02,.86-.93,1.7-1.9,2.52-2.89-9.2-23.71-14.22-49.5-14.22-76.46Zm-42.47,56.35v-92.75h1.53c7.64,0,13.7,4.24,18.18,12.73,4.48,8.42,6.72,19.92,6.72,34.46,0,29.51-8.81,44.69-26.43,45.56Z"/></g><g><path class="cls-1" d="M965.51,105.16h-60.18l-4.76,19.8c6.01,19.62,9.24,40.45,9.24,62.03,0,36.32-9.13,70.5-25.22,100.37h27.81l4.01-23.15h33.15l3.66,23.15h50.87l-38.58-182.2Zm-42.49,120l4.95-28.56,3.43-22.06c.07-.39,.22-1.53,.47-3.42,.24-1.9,.63-5.28,1.18-10.15,.32-2.45,.62-4.69,.9-6.72,.26-2.05,.48-3.9,.63-5.56l1.55,17.23c.39,3.55,.69,6.48,.93,8.79,.24,2.33,.43,4.16,.6,5.49,1.49,11.96,2.31,18.82,2.46,20.53,.24,2.05,.41,3.12,.49,3.19l3.17,21.24h-20.76Z"/><path class="cls-1" d="M1163.52,105.16l-8.98,56.52c-1.25,7.86-2.41,16.63-3.42,26.32-1.03,9.67-1.98,20.76-2.84,33.26-2.91-27.85-6.33-51.95-10.27-72.33l-8.25-43.77h-42.37l-9.2,52.04c-2.6,15.03-4.72,30.87-6.37,47.54l-1.55,14.28-1.64-16.63c-1.18-11.4-3.3-27.1-6.37-47.09l-8.03-50.14h-48.63l40.6,182.2h47.9l9.33-66.1c.78-5.51,1.46-10.73,2-15.68,.56-4.97,1.03-9.69,1.42-14.17,.78-8.81,1.38-14.82,1.77-18.05,.15,1.57,.43,3.85,.82,6.83,.39,3.01,.88,6.74,1.42,11.22,1.1,9.05,2.76,19.75,4.97,32.09l11.31,63.86h47.45l36.92-182.2h-48.01Z"/><path class="cls-1" d="M1316.91,105.16h-60.18l-43.79,182.2h50.87l4.01-23.15h33.15l3.66,23.15h50.87l-38.58-182.2Zm-42.48,120l4.95-28.56,3.43-22.06c.07-.39,.22-1.53,.47-3.42,.24-1.9,.64-5.28,1.18-10.15,.32-2.45,.61-4.69,.9-6.72,.26-2.05,.48-3.9,.65-5.56l1.53,17.23c.39,3.55,.71,6.48,.93,8.79,.24,2.33,.43,4.16,.6,5.49,1.49,11.96,2.32,18.82,2.48,20.53,.22,2.05,.39,3.12,.47,3.19l3.19,21.24h-20.78Z"/><path class="cls-1" d="M1503.48,287.36l-44.15-94.3,39.29-87.9h-51.91l-29.03,78.12,1.29-78.12h-49.2v182.2h49.2l-1.29-84.03,32.68,84.03h53.11Z"/><path class="cls-1" d="M1609.07,148v-42.84h-91.44v182.2h91.44v-43.79h-42.24v-27.85h37.89v-41.18h-37.89v-26.54h42.24Z"/></g><g><path d="M677.41,1.11c.23-.06,.45-.09,.69-.09h.05c-.24,.03-.5,.05-.74,.09Z"/><path class="cls-3" d="M884.81,187.01c0,96.4-72.94,175.77-166.66,185.91h0c-.22,.03-.41,.05-.63,.07h-.02c-1.55,0-2.8-1.27-2.8-2.81,0-1.36,.96-2.49,2.25-2.76h0c3.58-.83,6.26-4.03,6.26-7.87,0-2.03-.76-3.89-1.99-5.3l.03-.02c-.61-.75-.98-1.69-.98-2.74,0-2.37,1.92-4.29,4.29-4.29v-.02c47.94-1.61,86.31-40.98,86.31-89.31,0-3.85-.24-7.65-.72-11.38l-.17,.02c-1.45-11.51-5.42-22.25-11.34-31.62-10.7-21.59-31.24-37.45-55.75-41.7-4.31-.76-8.74-1.14-13.26-1.14-.92,0-1.85,.02-2.75,.05-2.1,2.71-4.37,5.27-6.8,7.67-7.81,1.31-15.22,3.78-22.04,7.24h-.42c-6.93,3.54-14.12,5.91-22.05,7.24-2.43,2.4-4.71,4.96-6.8,7.66-.91,.04-1.84,.05-2.75,.05-4.52,0-8.96-.39-13.26-1.14-24.5-4.25-45.02-20.08-55.73-41.66-5.92-9.35-9.9-20.05-11.36-31.54l-.16,.02c-.49-3.77-.74-7.61-.74-11.5,0-48.33,38.37-87.7,86.31-89.3v-.03c2.37,0,4.29-1.92,4.29-4.28,0-1.04-.37-1.99-.98-2.74l.03-.02c-1.23-1.42-1.99-3.28-1.99-5.31,0-3.83,2.67-7.04,6.26-7.86,1.29-.27,2.25-1.4,2.25-2.76,0-1.54-1.22-2.78-2.75-2.82,6.45-.68,13.01-1.02,19.64-1.02,53.93,0,102.53,22.83,136.66,59.35,3.69,3.94,7.21,8.05,10.55,12.3h0c23.57,30.06,38.16,67.51,39.67,108.3,0,.41,.03,.83,.04,1.24,.06,1.93,.09,3.86,.09,5.81Z"/><path class="cls-2" d="M510.81,187c0-96.4,72.94-175.77,166.66-185.91h0c.22-.03,.41-.05,.63-.07h.02c1.55,0,2.8,1.27,2.8,2.81,0,1.36-.96,2.49-2.25,2.76h0c-3.58,.83-6.26,4.03-6.26,7.87,0,2.03,.76,3.89,1.99,5.3l-.03,.02c.61,.75,.98,1.69,.98,2.74,0,2.37-1.92,4.29-4.29,4.29v.02c-47.94,1.61-86.31,40.98-86.31,89.31,0,3.85,.24,7.65,.72,11.38l.17-.02c1.45,11.51,5.42,22.25,11.34,31.62,10.7,21.59,31.24,37.45,55.75,41.7,4.31,.76,8.74,1.14,13.26,1.14,.92,0,1.85-.02,2.75-.05,2.1-2.71,4.37-5.27,6.8-7.67,7.81-1.31,15.22-3.78,22.04-7.24h.42c6.93-3.54,14.12-5.91,22.05-7.24,2.43-2.4,4.71-4.96,6.8-7.66,.91-.04,1.84-.05,2.75-.05,4.52,0,8.96,.39,13.26,1.14,24.5,4.25,45.02,20.08,55.73,41.66,5.92,9.35,9.9,20.05,11.36,31.54l.16-.02c.49,3.77,.74,7.61,.74,11.5,0,48.33-38.37,87.7-86.31,89.3v.03c-2.37,0-4.29,1.92-4.29,4.28,0,1.04,.37,1.99,.98,2.74l-.03,.02c1.23,1.42,1.99,3.28,1.99,5.31,0,3.83-2.67,7.04-6.26,7.86-1.29,.27-2.25,1.4-2.25,2.76,0,1.54,1.22,2.78,2.75,2.82-6.45,.68-13.01,1.02-19.64,1.02-53.93,0-102.53-22.83-136.66-59.35-3.69-3.94-7.21-8.05-10.55-12.3h0c-23.57-30.06-38.16-67.51-39.67-108.3,0-.41-.03-.83-.04-1.24-.06-1.93-.09-3.86-.09-5.81Z"/><path class="cls-2" d="M795.16,165.52c4.48-1.33,9.12,.02,12.19,3.12l.04-.04c15.5,15.8,38.48,23.3,61.24,18.34,1.41-.21,2.81,.65,3.22,2.06,.37,1.23-.11,2.51-1.11,3.22-.06,.04-.13,.09-.2,.13-5.2,3.39-10.97,6.09-17.23,7.96-22.69,6.75-46.14,.75-62.67-13.85-1.7-1.47-3.02-3.43-3.72-5.75-1.92-6.47,1.76-13.28,8.23-15.19Z"/><path class="cls-2" d="M770.26,93.12c0,5.8-2.85,10.93-7.23,14.05h0c-2.84,2.04-6.31,3.24-10.06,3.24-4.99,0-9.47-2.11-12.62-5.48-.57-.59-1.08-1.22-1.54-1.9h0v-.02c-1.98-2.8-3.12-6.21-3.12-9.89,0-.3,0-.59,.02-.88h0c0-.17,.03-.33,.04-.5h0c.71-8.91,8.15-15.91,17.24-15.91,.32,0,.62,0,.93,.02,9.12,.49,16.36,8.04,16.36,17.27Z"/><path class="cls-3" d="M600.47,208.49c-4.48,1.33-9.12-.02-12.19-3.12l-.04,.04c-15.5-15.8-38.48-23.3-61.24-18.34-1.41,.21-2.81-.65-3.22-2.06-.37-1.23,.11-2.51,1.11-3.22,.06-.04,.13-.09,.2-.13,5.2-3.39,10.97-6.09,17.23-7.96,22.69-6.75,46.14-.75,62.67,13.85,1.7,1.47,3.02,3.43,3.72,5.75,1.92,6.47-1.76,13.28-8.23,15.19Z"/><path class="cls-3" d="M625.37,280.89c0-5.8,2.85-10.93,7.23-14.05h0c2.84-2.04,6.31-3.24,10.06-3.24,4.99,0,9.47,2.11,12.62,5.48,.57,.59,1.08,1.22,1.54,1.9h0v.02c1.98,2.8,3.12,6.21,3.12,9.89,0,.3,0,.59-.02,.88h0c0,.17-.03,.33-.04,.5h0c-.71,8.91-8.15,15.91-17.24,15.91-.32,0-.62,0-.93-.02-9.12-.49-16.36-8.04-16.36-17.27Z"/><g><path class="cls-2" d="M864.62,105.97c-7.9,.51-16.01,3.2-22.53,7.8-2.27,1.52-4.24,3.45-6.14,5.45,1.84-2.49,3.96-4.84,6.35-6.86,6.33-5.17,13.95-8.62,22.02-10.01,2.55-.3,2.88,3.5,.3,3.62h0Z"/><path class="cls-2" d="M870.25,119.01c-7.58,.32-15.36,3.39-20.63,9,1.16-1.6,2.41-3.19,3.92-4.52,2.98-2.77,6.57-4.87,10.36-6.36,1.95-.74,3.85-1.35,6.05-1.74,.99-.18,1.94,.48,2.12,1.47,.21,1.12-.69,2.17-1.82,2.15h0Z"/><path class="cls-2" d="M875.73,132.62c-5.12,0-10.5,1.93-14.19,5.6,3.12-4.83,8.29-7.95,13.89-9.22,2.68-.44,3.02,3.62,.3,3.62h0Z"/></g><g><path class="cls-3" d="M531,268.04c7.9-.51,16.01-3.2,22.53-7.8,2.27-1.52,4.24-3.45,6.14-5.45-1.84,2.49-3.96,4.84-6.35,6.86-6.33,5.17-13.95,8.62-22.02,10.01-2.55,.3-2.88-3.5-.3-3.62h0Z"/><path class="cls-3" d="M525.38,254.99c5.6-.23,11.44-2.02,16.14-5.19,1.65-1.05,3.09-2.4,4.49-3.81-3.44,5.02-8.63,8.68-14.29,10.88-1.95,.74-3.85,1.35-6.05,1.74-.99,.18-1.94-.48-2.12-1.47-.21-1.12,.69-2.17,1.82-2.15h0Z"/><path class="cls-3" d="M519.9,241.39c5.12,0,10.5-1.93,14.19-5.6-3.12,4.83-8.29,7.95-13.89,9.22-2.68,.44-3.02-3.62-.3-3.62h0Z"/></g><path class="cls-2" d="M729.41,176.41c-14.93-4.89-26.84-18.23-28.21-34.08,.71,3.74,1.91,7.37,3.61,10.73,4.23,8.33,11.77,14.68,20.36,18.14,1.71,.7,3.53,1.32,5.2,1.69,2.41,.63,1.45,4.19-.96,3.51h0Z"/><path class="cls-3" d="M666.21,197.59c14.93,4.89,26.84,18.23,28.21,34.08-.71-3.74-1.91-7.37-3.61-10.73-4.23-8.33-11.77-14.68-20.36-18.14-1.71-.7-3.53-1.32-5.2-1.69-2.41-.63-1.45-4.19,.96-3.51h0Z"/></g></g></g></svg>